<svg xmlns="http://www.w3.org/2000/svg" version="1.1" xmlns:xlink="http://www.w3.org/1999/xlink" xmlns:svgjs="http://svgjs.dev/svgjs" width="1500" height="1500" viewBox="0 0 1500 1500"><rect width="1500" height="1500" fill="#000000"></rect><g transform="matrix(0.6666666666666666,0,0,0.6666666666666666,249.39393939393938,438.58569500674764)"><svg viewBox="0 0 396 247" data-background-color="#a67729" preserveAspectRatio="xMidYMid meet" height="935" width="1500" xmlns="http://www.w3.org/2000/svg" xmlns:xlink="http://www.w3.org/1999/xlink"><g id="tight-bounds" transform="matrix(1,0,0,1,0.2400000000000091,-0.09999999999999432)"><svg viewBox="0 0 395.52 247.2" height="247.2" width="395.52"><g><svg></svg></g><g><svg viewBox="0 0 395.52 247.2" height="247.2" width="395.52"><g transform="matrix(1,0,0,1,75.54432,85.22708224172857)"><svg viewBox="0 0 244.43135999999998 76.74583551654285" height="76.74583551654285" width="244.43135999999998"><g><svg viewBox="0 0 244.43135999999998 76.74583551654285" height="76.74583551654285" width="244.43135999999998"><g><svg viewBox="0 0 244.43135999999998 76.74583551654285" height="76.74583551654285" width="244.43135999999998"><g><svg viewBox="0 0 244.43135999999998 76.74583551654285" height="76.74583551654285" width="244.43135999999998"><g id="textblocktransform"><svg viewBox="0 0 244.43135999999998 76.74583551654285" height="76.74583551654285" width="244.43135999999998" id="textblock"><g><svg viewBox="0 0 244.43135999999998 76.74583551654285" height="76.74583551654285" width="244.43135999999998"><g transform="matrix(1,0,0,1,0,0)"><svg width="244.43135999999998" viewBox="2.2 -32.7 148.09 46.5" height="76.74583551654285" data-palette-color="#ffffff"><path d="M3.85 0.5L3.85 0.5Q2.9 0.5 2.55-0.05 2.2-0.6 2.2-1.25L2.2-1.25Q2.2-4.35 2.83-8.35 3.45-12.35 4.35-16.3L4.35-16.3Q5.15-19.65 6.13-22.55 7.1-25.45 7.85-27.3L7.85-27.3Q8.95-29.9 10.38-31.28 11.8-32.65 13.7-32.65L13.7-32.65Q15.1-32.65 16.2-31.73 17.3-30.8 17.5-28.4L17.5-28.4Q17.8-25.5 18.2-22.55 18.6-19.6 19.1-17.18 19.6-14.75 20.15-13.45L20.15-13.45Q20.6-12.3 21.45-12.3L21.45-12.3Q22.4-12.3 23.1-13.5L23.1-13.5Q23.75-14.6 24.5-16.5 25.25-18.4 25.98-20.53 26.7-22.65 27.25-24.4L27.25-24.4Q27.9-26.3 28.73-28.23 29.55-30.15 30.85-31.43 32.15-32.7 34.1-32.7L34.1-32.7Q35.9-32.7 36.68-31.48 37.45-30.25 37.45-27.6L37.45-27.6Q37.45-25.55 37.3-23.3L37.3-23.3Q37.25-22 37.18-20.63 37.1-19.25 37.1-17.8L37.1-17.8Q37.1-15.55 37.33-13.05 37.55-10.55 38.23-8.35 38.9-6.15 40.25-4.65L40.25-4.65Q40.65-4.3 40.98-3.85 41.3-3.4 41.3-2.85L41.3-2.85Q41.3-1.6 39.98-0.58 38.65 0.45 36.95 0.45L36.95 0.45Q35.4 0.45 34.65-0.55 33.9-1.55 33.45-3.25L33.45-3.25Q32.95-5.35 32.75-7.75 32.55-10.15 32.55-12.4L32.55-12.4Q32.55-16 32.83-19.03 33.1-22.05 33.1-23.5L33.1-23.5Q33.1-24.3 32.95-24.68 32.8-25.05 32.2-25.05L32.2-25.05Q31.5-25.05 31.03-24.43 30.55-23.8 30.25-22.7L30.25-22.7Q29.6-20.6 28.8-18.2 28-15.8 27.13-13.5 26.25-11.2 25.25-9.4L25.25-9.4Q24.1-7.3 22.78-6.58 21.45-5.85 20.1-5.85L20.1-5.85Q18-5.85 16.93-7.18 15.85-8.5 15.35-10.1L15.35-10.1Q14.7-12.25 14.15-15.73 13.6-19.2 13.35-23.55L13.35-23.55Q13.25-25.4 12.15-25.4L12.15-25.4Q10.95-25.4 10.25-23.6L10.25-23.6Q9.65-21.8 9.1-19.38 8.55-16.95 8.22-14.33 7.9-11.7 7.9-9.15L7.9-9.15Q7.9-7 8.08-5.4 8.25-3.8 8.25-2.4L8.25-2.4Q8.25-1.4 7.48-0.75 6.7-0.1 5.65 0.2 4.6 0.5 3.85 0.5ZM45.9 13.8L45.9 13.8Q43.85 13.8 42.37 12.7 40.9 11.6 40.9 9.75L40.9 9.75Q40.9 8.3 41.77 7.28 42.65 6.25 43.95 6.25L43.95 6.25Q44.55 6.25 44.8 6.45 45.05 6.65 45.2 6.9L45.2 6.9Q45.6 7.55 46.12 8.03 46.65 8.5 47.55 8.5L47.55 8.5Q48.75 8.5 49.87 7.65 51 6.8 51.95 5.7L51.95 5.7Q52.8 4.75 54 2.98 55.2 1.2 56.4-1.05L56.4-1.05Q55.3-0.1 54.35 0.33 53.4 0.75 52.55 0.75L52.55 0.75Q51.5 0.75 50.5-0.03 49.5-0.8 49.25-2.95L49.25-2.95Q49.1-4.6 48.67-6.6 48.25-8.6 47.62-10.48 47-12.35 46.1-13.65L46.1-13.65Q45.75-14.25 45.3-14.55 44.85-14.85 44-14.95L44-14.95Q43.4-15 43.22-15.3 43.05-15.6 43.05-16.25L43.05-16.25Q43.05-18.05 44.05-19.15 45.05-20.25 46.75-20.25L46.75-20.25Q48.8-20.25 49.7-18.68 50.6-17.1 51.25-14.85L51.25-14.85Q51.5-13.95 51.77-12.48 52.05-11 52.27-9.3 52.5-7.6 52.6-6.05L52.6-6.05Q52.65-4.95 53.85-4.95L53.85-4.95Q55.45-4.95 56.9-5.95 58.35-6.95 59.27-8.55 60.2-10.15 60.2-11.9L60.2-11.9Q60.2-12.9 59.95-13.7 59.7-14.5 59.1-15.1L59.1-15.1Q58.6-15.7 58.3-16.07 58-16.45 58-16.95L58-16.95Q58-17.8 58.8-18.55 59.6-19.3 60.72-19.8 61.85-20.3 62.7-20.3L62.7-20.3Q64.2-20.3 64.7-18.88 65.2-17.45 64.95-15.75L64.95-15.75Q64.65-13.4 63.75-10.2 62.85-7 61.42-3.5 60 0 58.17 3.28 56.35 6.55 54.3 9L54.3 9Q52.55 11.15 50.4 12.48 48.25 13.8 45.9 13.8ZM94.34 0.65L94.34 0.65Q90.79 0.65 88.12-0.95 85.44-2.55 83.99-5.5 82.54-8.45 82.54-12.5L82.54-12.5Q82.54-16.35 83.79-19.9 85.04-23.45 87.39-26.25 89.74-29.05 93.04-30.7 96.34-32.35 100.49-32.35L100.49-32.35Q103.59-32.35 105.59-31.4 107.59-30.45 107.59-28.6L107.59-28.6Q107.59-27.7 107.12-26.83 106.64-25.95 105.89-25.35 105.14-24.75 104.34-24.75L104.34-24.75Q103.84-24.75 103.54-25L103.54-25Q102.19-25.9 100.89-26.33 99.59-26.75 97.89-26.75L97.89-26.75Q94.34-26.75 91.89-25.13 89.44-23.5 88.17-20.85 86.89-18.2 86.89-15.1L86.89-15.1Q86.89-12.1 88.04-9.8 89.19-7.5 91.24-6.2 93.29-4.9 96.04-4.9L96.04-4.9Q98.24-4.9 100.32-5.78 102.39-6.65 103.99-8.2L103.99-8.2Q104.69-8.85 105.39-8.85L105.39-8.85Q105.99-8.85 106.24-8.35 106.49-7.85 106.49-7.35L106.49-7.35Q106.49-6.5 105.99-5.43 105.49-4.35 104.44-3.3L104.44-3.3Q102.59-1.45 99.89-0.4 97.19 0.65 94.34 0.65ZM115.89 0.65L115.89 0.65Q112.89 0.65 111.07-1.23 109.24-3.1 109.24-6.6L109.24-6.6Q109.24-9.1 110.22-11.58 111.19-14.05 113.04-16.05 114.89-18.05 117.49-19.25 120.09-20.45 123.34-20.45L123.34-20.45Q126.34-20.45 128.47-19.43 130.59-18.4 130.59-16.65L130.59-16.65Q130.59-16.2 130.49-15.48 130.39-14.75 130.24-14.3L130.24-14.3Q130.09-13.9 129.82-13.58 129.54-13.25 129.09-13.25L129.09-13.25Q128.89-13.25 128.34-13.4L128.34-13.4Q128.14-12.35 128.04-11.35 127.94-10.35 127.94-9.35L127.94-9.35Q127.94-7.45 128.52-5.98 129.09-4.5 130.79-4.15L130.79-4.15Q131.24-4.05 131.52-3.85 131.79-3.65 131.79-3L131.79-3Q131.79-2.45 131.52-1.6 131.24-0.75 130.47-0.08 129.69 0.6 128.24 0.6L128.24 0.6Q126.29 0.6 125.24-0.83 124.19-2.25 124.19-4.9L124.19-4.9Q122.84-2.45 120.77-0.9 118.69 0.65 115.89 0.65ZM117.49-4.55L117.49-4.55Q119.49-4.55 121.02-5.8 122.54-7.05 123.39-8.95L123.39-8.95Q123.94-10.15 124.24-11.58 124.54-13 124.64-14.4L124.64-14.4Q123.79-14.8 122.69-15.05 121.59-15.3 120.39-15.3L120.39-15.3Q117.34-15.3 115.37-13.5 113.39-11.7 113.39-9L113.39-9Q113.39-7 114.49-5.78 115.59-4.55 117.49-4.55ZM137.89 0.55L137.89 0.55Q137.09 0.55 136.61 0.28 136.14 0 136.29-0.65L136.29-0.65Q136.84-2.8 137.21-5.03 137.59-7.25 137.59-9.3L137.59-9.3Q137.59-11.95 137.26-13.18 136.94-14.4 136.39-14.88 135.84-15.35 135.04-15.6L135.04-15.6Q134.69-15.75 134.41-16 134.14-16.25 134.14-16.7L134.14-16.7Q134.14-17.4 134.69-18.25 135.24-19.1 136.24-19.73 137.24-20.35 138.54-20.35L138.54-20.35Q140.24-20.35 140.91-19.18 141.59-18 141.59-16.1L141.59-16.1Q142.49-18.1 143.81-19.28 145.14-20.45 147.14-20.45L147.14-20.45Q148.49-20.45 149.39-19.85 150.29-19.25 150.29-17.9L150.29-17.9Q150.29-16.55 149.41-15.38 148.54-14.2 147.64-14.2L147.64-14.2Q147.49-14.2 147.29-14.25 147.09-14.3 146.94-14.5L146.94-14.5Q146.29-15.3 145.34-15.3L145.34-15.3Q143.89-15.3 142.79-13.4 141.69-11.5 141.59-8.15L141.59-8.15Q141.64-6.9 141.66-5.6 141.69-4.3 141.69-3.7L141.69-3.7Q141.69-1.85 140.66-0.65 139.64 0.55 137.89 0.55Z" opacity="1" transform="matrix(1,0,0,1,0,0)" fill="#ffffff" class="wordmark-text-0" data-fill-palette-color="primary" id="text-0"></path></svg></g></svg></g></svg></g></svg></g><g></g></svg></g></svg></g></svg></g><g><path d="M89.384 67.109A122.216 122.216 0 0 1 306.136 67.109L299.215 67.109A115.295 115.295 0 0 0 96.305 67.109L89.384 67.109M89.384 180.091A122.216 122.216 0 0 0 306.136 180.091L299.215 180.091A115.295 115.295 0 0 1 96.305 180.091L89.384 180.091" fill="#ffffff" stroke="transparent" data-fill-palette-color="tertiary"></path></g></svg></g><defs></defs></svg><rect width="395.52" height="247.2" fill="none" stroke="none" visibility="hidden"></rect></g></svg></g></svg>